<svg width="758" height="620" viewBox="0 0 758 620" fill="none" xmlns="http://www.w3.org/2000/svg">
<path d="M9.18263 495.109C237.319 497.343 485.597 499.853 713.28 495.086C712.836 531.811 708.143 576.342 706.546 614.404C706.307 614.699 706.136 615.064 705.833 615.294C695.882 622.859 69.8227 618.11 0 618.078C3.59409 578.083 8.32535 535.016 9.18263 495.109Z" fill="#E73334"/>
<path d="M53.3869 0C72.7685 2.11227 113.508 1.44938 133.971 1.58195L295.408 1.82056C449.556 2.33021 603.708 1.96495 757.853 0.72175C755.611 41.8712 750.167 83.5538 748.12 125.369C729.165 122.341 675.321 123.451 653.836 123.46L474.102 123.534L201.752 123.401C156.476 123.392 87.3865 121.424 44.166 125.649C44.2986 92.383 50.8239 35.1868 53.3869 0Z" fill="#E73334"/>
<path d="M24.0874 330.088C235.57 331.555 463.362 335.311 673.658 330.5C692.872 349.343 707.163 366.197 724.638 386.766C724.459 406.28 721.887 433.085 720.49 453.074L14.8223 453.598C18.4075 412.466 21.4979 371.293 24.0874 330.088Z" fill="#E73334"/>
<path d="M40.1622 164.618C109.687 168.645 205.638 166.427 275.894 166.451L743.58 166.948C741.782 191.424 739.9 208.672 735.917 232.859C727.335 243.585 716.583 254.037 706.881 263.915C697.581 271.905 686.266 280.551 676.579 288.346L29.5508 288.173C31.5246 247.318 36.1851 205.414 40.1622 164.618Z" fill="#E73334"/>
</svg>
