<svg width="1112" height="235" viewBox="0 0 1112 235" fill="none" xmlns="http://www.w3.org/2000/svg">
<path d="M669.245 0.331026C702.489 2.20522 737.93 -1.57315 771.275 1.15915C800.953 3.59027 793.883 29.701 792.075 50.7929C790.597 68.0476 792.229 86.2209 779.702 99.8672C766.397 108.076 741.069 106.088 725.342 106.05C703.782 105.909 682.22 105.897 660.66 106.016C662.166 72.0277 667.432 35.1382 669.245 0.331026ZM763.479 24.9814C741.213 24.4545 718.939 24.3108 696.668 24.5498C695.833 42.0178 694.054 64.7953 691.919 82.1533C713.151 81.9966 737.383 82.3501 758.362 81.2441C762.135 73.6173 763.424 34.2101 763.479 24.9814Z" fill="white"/>
<path fill-rule="evenodd" clip-rule="evenodd" d="M419.827 0.389213C458.186 0.238032 494.722 -6.0968 473.354 47.2033C472.741 51.4741 476.727 54.5676 476.967 58.7842C477.759 72.7913 476.321 87.0211 467.748 98.3684C452.421 108.944 426.427 106.055 407.864 105.98C387.711 105.885 367.558 105.913 347.406 106.059C349.475 72.3964 353.456 34.2613 356.499 0.397897C377.607 0.530179 398.717 0.52705 419.827 0.389213ZM447.661 58.0807C425.11 56.5834 402.666 56.9593 380.073 57.1471C379.662 65.4375 379.353 74.1051 378.705 82.3454C400.396 82.3076 424.227 82.7692 445.742 82.1022C446.778 73.3449 447.535 66.9226 447.661 58.0807ZM448.651 25.0447C440.291 23.4795 393.113 24.1985 382.644 24.4975L382.422 35.6876C404.922 35.9444 427.423 35.965 449.923 35.7527C450.023 31.8102 450.658 28.1937 448.651 25.0447Z" fill="white"/>
<path d="M591.51 0.353354C640.541 -0.889433 637.788 9.40736 634.074 51.0028C632.521 69.379 630.749 87.7381 628.759 106.072C618.631 105.944 609.852 105.816 599.76 106.507C600.407 99.4957 602.577 78.4519 601.611 72.8524C581.704 73.8084 555.507 72.4611 534.49 72.9168C534.185 82.4489 532.507 96.1918 531.652 106.066C521.35 105.885 513.173 106.014 502.889 106.579C503.259 89.1876 506.116 19.9811 515.672 9.01937C522.087 1.66188 530.381 1.17276 539.493 0.601401C556.046 0.483568 575.14 0.767989 591.51 0.353354ZM605.631 24.7977C583.771 24.442 561.908 24.395 540.048 24.6551C537.756 34.2115 537.295 41.399 536.443 51.201C558.328 51.2043 581.187 51.5502 602.99 51.1278C606.603 46.2975 605.611 31.484 605.631 24.7977Z" fill="white"/>
<path d="M857.437 0.559777C879.954 0.0562119 904.506 0.114588 927.072 0.563683C937.888 0.778225 944.183 4.07475 950.979 12.0061C952.74 31.2316 946.919 85.1123 944.586 106.084C934.82 105.765 925.236 106.068 915.473 106.295C916.698 97.2721 917.437 81.9894 917.673 72.7063C896.579 73.9691 872.783 71.7799 850.263 73.2717C849.779 83.6387 848.463 95.6336 847.539 106.03L818.545 105.988C819.126 80.0221 822.56 48.6786 825.769 22.6633C828.064 4.0515 841.132 1.39574 857.437 0.559777ZM921.31 24.6682C899.404 24.4092 877.495 24.4225 855.59 24.7082C853.538 34.0381 853.075 41.9073 851.934 51.2727L918.786 51.2014C922.581 47.2896 921.332 30.9556 921.31 24.6682Z" fill="white"/>
<path d="M984.915 0.380687C1020.52 2.33266 1060.31 -3.27646 1095.4 3.32991C1115.09 7.03527 1110.22 43.3003 1103.37 55.8338C1099.89 62.1844 1091.64 66.23 1084.95 69.0936C1093.63 79.7674 1103.31 94.5639 1111.31 106.094C1102.59 105.682 1093.64 106.053 1084.89 106.26C1082.96 106.399 1080.95 106.06 1078.98 105.853C1072.39 102.454 1055.45 75.5725 1050.62 68.5223C1038.26 69.2148 1021.62 68.8268 1008.83 68.909L1005.91 106.379C996.753 105.547 985.848 105.903 976.518 105.99C977.499 72.9983 983.648 34.9732 984.915 0.380687ZM1011.19 47.0076C1032.76 47.0277 1055.89 47.4286 1077.32 46.6405C1078.7 37.5953 1079.27 34.0036 1078.74 24.6229C1057.65 24.1927 1032.58 25.0539 1012.48 24.1268L1011.19 47.0076Z" fill="white"/>
<path d="M659.071 127.903C680.955 128.504 757.29 124.959 772.185 132.153C776.532 134.252 779.185 137.682 780.646 142.243C783.857 152.27 782.405 172.073 777.562 181.4C773.232 189.737 766.619 193.002 758.017 195.747C766.659 208.34 775.633 220.88 784.436 233.374L760.574 233.487C757.249 233.578 755.491 233.478 752.179 233.138C744.405 228.846 729.868 204.911 724.147 196.526C709.849 196.322 696.611 196.155 682.288 196.721C681.031 208.877 679.942 221.049 679.022 233.235C669.435 233.48 659.407 233.401 649.779 233.47C650.583 207.363 655.52 153.657 659.071 127.903ZM752.431 152.768C739.797 151.528 728.176 151.74 715.531 151.797L685.495 152.076C685.201 159.658 685 166.948 684.158 174.5L723.465 174.66C747.87 175.047 752.252 178.794 752.431 152.768Z" fill="white"/>
<path d="M815.689 128.022C827.016 128.858 847.699 128.273 859.71 128.281L942.568 128.34C942.098 136.295 941.562 144.244 940.958 152.19C908.718 152.374 875.328 151.435 843.232 152.487L842.179 170.092L939.274 170.134C938.806 177.315 938.247 184.488 937.596 191.655C921.835 192.008 904.512 191.61 888.633 191.558C872.164 191.466 855.696 191.627 839.231 192.044L838.642 209.176C870.978 209.475 903.315 209.608 935.652 209.574C935.334 217.49 934.906 225.401 934.368 233.305C892.799 234.19 848.574 233.452 806.793 233.478C810.066 203.236 814.57 157.642 815.689 128.022Z" fill="white"/>
<path d="M1003.66 128.419L1100.18 128.261C1100.2 136.103 1099.37 144.452 1098.76 152.31L1042.21 152.228C1031.76 152.157 1004.91 149.236 999.056 157.997C1006.76 174.983 1095.01 145.825 1095.19 183.903C1095.31 210.54 1094.42 230.307 1063.45 233.32C1031.46 233.957 997.544 233.431 965.402 233.446C966.032 225.365 966.585 217.278 967.066 209.187C996.254 210.184 1034.74 209.876 1063.92 208.967C1064.26 206.009 1066.71 187.79 1064.09 186.648C1041.83 176.786 971.044 201.028 970.671 163.166C970.436 139.231 980.992 129.451 1003.66 128.419Z" fill="white"/>
<path d="M596.746 127.98C606.129 128.236 616.343 128.042 625.795 128.047C624.82 152.162 622.586 176.164 620.505 200.14C617.41 235.811 601.842 233.461 572.311 233.453L490.867 233.531L492.296 209.531C519.765 209.523 557.149 209.103 585.623 209.298C586.659 208.658 587.536 208.115 588.253 207.672C590.076 204.311 589.884 203.207 589.92 199.328C586.418 196.345 533.138 197.832 524.564 198.088C483.894 199.304 498.873 158.148 499.977 128.113L530.101 128.361C528.654 143.111 526.516 160.935 526.487 175.502C548.512 176.184 571.052 175.885 593.13 175.815C593.593 160.325 595.752 143.69 596.746 127.98Z" fill="white"/>
<path d="M361.805 128.445C399.725 128.198 437.647 128.195 475.566 128.437C474.45 135.845 473.694 144.73 472.887 152.285C456.03 152.061 439.17 152.147 422.315 152.541C422.203 165.48 420.14 186.011 419.01 199.023C417.894 210.487 416.907 221.962 416.047 233.449L386.327 233.383C389.314 207.483 391.008 178.674 393.138 152.431C376.689 152.163 359.997 152.211 343.533 152.172C344.229 145.285 344.456 135.979 344.813 128.883L361.805 128.445Z" fill="white"/>
<path d="M3.46955 187.072C89.6683 187.916 183.477 188.864 269.505 187.063C269.337 200.939 267.564 217.765 266.96 232.146C266.87 232.257 266.806 232.395 266.691 232.482C262.931 235.341 26.3817 233.546 0 233.534C1.35799 218.422 3.14564 202.15 3.46955 187.072Z" fill="#E73334"/>
<path d="M20.1754 0C27.4985 0.798096 42.8917 0.547633 50.6233 0.597723L111.62 0.687877C169.863 0.880444 228.108 0.742435 286.35 0.272705C285.503 15.8205 283.446 31.5698 282.672 47.3692C275.51 46.225 255.166 46.6446 247.048 46.648L179.138 46.6758L76.2336 46.6257C59.1263 46.6224 33.0218 45.8788 16.6914 47.475C16.7415 34.9058 19.207 13.2949 20.1754 0Z" fill="#E73334"/>
<path d="M9.10423 124.719C89.0106 125.274 175.079 126.693 254.537 124.875C261.797 131.995 267.196 138.363 273.799 146.134C273.731 153.507 272.76 163.636 272.232 171.188L5.60352 171.386C6.95816 155.845 8.12581 140.288 9.10423 124.719Z" fill="#E73334"/>
<path d="M15.1754 62.1987C41.4447 63.7203 77.6985 62.8822 104.244 62.8911L280.954 63.0792C280.275 72.3269 279.563 78.8441 278.058 87.9827C274.816 92.0355 270.753 95.9848 267.088 99.717C263.574 102.736 259.298 106.003 255.638 108.948L11.166 108.882C11.9118 93.4458 13.6727 77.613 15.1754 62.1987Z" fill="#E73334"/>
</svg>
